# xmcd
#
# Track frame offsets:
#	150
#	15932
#	33252
#	47350
#	60480
#	81002
#	98167
#	112635
#	129650
#	146080
#	163107
#	181460
#	196357
#
# Disc length: 2905 seconds
#
# Revision: 0
# Processed by: cddbd v1.4PL0 Copyright (c) Steve Scherf et al.
# Submitted via: dBpowerAMP V4.0
#
DISCID=9c0b570d
DTITLE=John Doe - Walk on
DYEAR=1999
DGENRE=Blues
TTITLE0=I shot her down
TTITLE1=Walk on
TTITLE2=The streets of Miami
TTITLE3=Billy's got a big one
TTITLE4=White bred B.S.
TTITLE5=Free from the wheel
TTITLE6=Oh Louise
TTITLE7=The old cold shoulder
TTITLE8=Truth is
TTITLE9=In the family mind
TTITLE10=I hope I get lucky next time
TTITLE11=Don't miss dah sistah
TTITLE12=I can't come down
EXTD=Franck Girard
EXTT0=
EXTT1=
EXTT2=
EXTT3=
EXTT4=
EXTT5=
EXTT6=
EXTT7=
EXTT8=
EXTT9=
EXTT10=
EXTT11=
EXTT12=
PLAYORDER=
